<svg width="1" height="1" viewBox="0 0 1 1" fill="none" xmlns="http://www.w3.org/2000/svg">
<path d="M0.507744 0.960585C0.504202 0.952502 0.499994 0.935571 0.49716 0.928301C0.494369 0.921844 0.48591 0.9041 0.481744 0.898408C0.472577 0.886307 0.470494 0.885494 0.46766 0.869376C0.462702 0.841923 0.450785 0.793473 0.435994 0.75961C0.428244 0.741818 0.415577 0.727278 0.404327 0.714364C0.394494 0.703077 0.371994 0.68452 0.367785 0.685333C0.330494 0.693416 0.319244 0.735361 0.301702 0.768458C0.291827 0.787016 0.281994 0.802369 0.274244 0.821739C0.267244 0.839483 0.26791 0.859667 0.255952 0.87502C0.244089 0.890151 0.23522 0.90805 0.229952 0.927488C0.228535 0.931505 0.225744 0.971872 0.222202 0.981534L0.277077 0.977516C0.32841 0.981582 0.313619 1.00416 0.393119 0.999326L0.518952 0.994495C0.515903 0.982902 0.512143 0.97157 0.507702 0.960585H0.507744ZM0.87341 7.13528e-08H0.126577C0.110046 -1.87956e-05 0.0936734 0.00370407 0.0783968 0.0109557C0.0631203 0.0182073 0.0492393 0.0288453 0.0375479 0.0422611C0.0258566 0.0556768 0.0165845 0.0716071 0.0102621 0.0891404C0.00393964 0.106674 0.000690969 0.125466 0.000701932 0.144442V0.459296C0.0189936 0.452026 0.0442853 0.407641 0.0527436 0.397119C0.0667853 0.378562 0.0696186 0.35436 0.0766603 0.339821C0.0928269 0.30591 0.0956186 0.281709 0.132202 0.281709C0.149077 0.281709 0.156119 0.28654 0.167369 0.304332C0.175119 0.316433 0.18916 0.339821 0.195494 0.355173C0.203244 0.372918 0.215202 0.396306 0.220827 0.401184C0.224994 0.404389 0.228535 0.407641 0.232077 0.409267C0.237702 0.411659 0.242619 0.406828 0.246827 0.403576C0.251744 0.398793 0.253869 0.389897 0.258785 0.376983C0.265827 0.358378 0.272869 0.337429 0.277077 0.329346C0.284119 0.316433 0.28691 0.300267 0.29466 0.292997C0.30591 0.281709 0.321369 0.280896 0.325577 0.280083C0.348785 0.274439 0.359327 0.292997 0.370577 0.304332C0.378327 0.312367 0.38816 0.32772 0.39591 0.347856C0.401535 0.364022 0.408577 0.379422 0.412077 0.388271C0.41491 0.397119 0.421952 0.411707 0.42616 0.429403C0.430369 0.444756 0.440202 0.456857 0.444452 0.46494C0.444452 0.46494 0.450785 0.48431 0.487369 0.502102C0.498382 0.507398 0.50965 0.511965 0.521119 0.515781C0.537285 0.522238 0.552744 0.521473 0.57241 0.519033C0.586494 0.519033 0.594244 0.495598 0.600577 0.47704C0.604077 0.465753 0.608285 0.434282 0.61041 0.425385C0.612494 0.416537 0.606869 0.41008 0.611827 0.40195C0.617452 0.393101 0.620952 0.392288 0.623744 0.381001C0.630827 0.355987 0.67016 0.355173 0.69266 0.355173C0.71166 0.355173 0.708869 0.37617 0.740494 0.3689C0.758785 0.364835 0.776327 0.371292 0.795369 0.377748C0.811535 0.382627 0.827035 0.388271 0.83616 0.400371C0.841785 0.408454 0.856535 0.448008 0.841785 0.449634C0.84316 0.451213 0.844577 0.455278 0.846702 0.456857C0.84316 0.472209 0.829119 0.460922 0.82066 0.459296C0.810119 0.456904 0.802369 0.459296 0.791827 0.46494C0.773535 0.473836 0.747535 0.473023 0.731369 0.488375C0.718035 0.501289 0.718035 0.529508 0.71166 0.545674C0.71166 0.545674 0.694077 0.596515 0.656827 0.627986C0.646952 0.636117 0.627994 0.65544 0.587202 0.66271C0.56891 0.665962 0.551369 0.665962 0.532327 0.665101C0.523202 0.664336 0.514077 0.664336 0.50491 0.664336C0.499285 0.664336 0.480994 0.663523 0.481702 0.665962L0.479619 0.671606C0.479736 0.674362 0.480199 0.677084 0.480994 0.679689C0.481702 0.684472 0.481702 0.688537 0.48241 0.692603C0.48241 0.701451 0.481702 0.71116 0.48241 0.720056C0.483119 0.738613 0.489452 0.755545 0.49016 0.774915C0.490869 0.795912 0.499994 0.818535 0.509119 0.835466C0.51266 0.841923 0.517577 0.842736 0.519702 0.850771C0.522494 0.859667 0.519702 0.870189 0.521077 0.879851C0.525994 0.917826 0.535869 0.958146 0.55066 0.992869V0.993682C0.56891 0.990478 0.58791 0.982395 0.611827 0.978377C0.656119 0.971059 0.717285 0.974312 0.75666 0.970246C0.856535 0.959772 0.910702 1.01712 0.999994 0.993682V0.14449C0.999752 0.106113 0.986316 0.0694001 0.962609 0.0423397C0.938902 0.0152793 0.906843 6.21267e-05 0.87341 7.13528e-08V7.13528e-08ZM0.500702 0.678063C0.500702 0.676437 0.500702 0.676437 0.500702 0.678063V0.678063ZM0.231369 0.810404C0.23841 0.79266 0.242619 0.773241 0.248244 0.755497C0.253869 0.738566 0.262285 0.714364 0.277077 0.705468C0.274994 0.703077 0.246119 0.702216 0.23841 0.701403C0.229921 0.700467 0.221469 0.699126 0.213077 0.697385C0.197051 0.694091 0.181102 0.690327 0.165244 0.686098C0.156077 0.683659 0.124452 0.670745 0.11816 0.667493C0.101952 0.659458 0.0914103 0.636022 0.0794519 0.638461C0.0717436 0.640087 0.0639936 0.643292 0.0590353 0.652188C0.0548686 0.659458 0.0534519 0.672371 0.0506186 0.681219C0.0471186 0.690929 0.0414519 0.70059 0.0372853 0.710299C0.0274103 0.72723 0.0112436 0.742583 0.00420193 0.759562C0.00282693 0.76358 0.0021186 0.767598 0.000701932 0.771663V0.966181C0.0091186 0.967807 0.0175769 0.969433 0.0267019 0.972638C0.0970353 0.994447 0.11391 0.996074 0.182827 0.987178L0.18916 0.986364C0.194077 0.973451 0.198327 0.930692 0.201827 0.917779C0.204619 0.907256 0.20816 0.899173 0.209577 0.889512C0.210952 0.879803 0.209577 0.870142 0.208869 0.861293C0.207452 0.837857 0.223619 0.829727 0.231369 0.810404V0.810404Z" fill="#626262"/>
</svg>
